<svg id="Capa_1" enable-background="new 0 0 512 512" height="80" viewBox="0 0 512 512" width="80" xmlns="http://www.w3.org/2000/svg"><g id="XMLID_858_"><path id="XMLID_162_" d="m232.399 215.204c-13.034 0-23.6 10.566-23.601 23.599v-61.402c0-13.034-10.566-23.601-23.601-23.601-13.034 0-23.601 10.566-23.601 23.601v-25.801c0-13.034-10.567-23.601-23.601-23.601s-23.601 10.566-23.601 23.601v25.801c0-13.034-10.566-23.601-23.601-23.601-13.034 0-23.601 10.566-23.601 23.601v89.836c0-15.793-12.803-28.596-28.597-28.596-15.792 0-28.595 12.803-28.595 28.596v84.486c0 27.913 14.813 53.729 38.911 67.815l18.293 10.692v71.769h141.59v-66.074l3.631-1.806c26.696-13.274 43.575-40.519 43.575-70.334v-53.905-35.767-35.309c0-13.033-10.566-23.6-23.601-23.6z" fill="#ffd0c7"/><path id="XMLID_163_" d="m473.404 238.641c-15.793 0-28.596 12.803-28.596 28.596v-89.836c0-13.034-10.567-23.601-23.601-23.601s-23.601 10.566-23.601 23.601v-25.801c0-13.034-10.566-23.601-23.601-23.601s-23.601 10.566-23.601 23.601v25.801c0-13.034-10.566-23.601-23.601-23.601-13.034 0-23.601 10.566-23.601 23.601v61.402c-.001-13.034-10.567-23.599-23.601-23.599s-23.601 10.566-23.601 23.601v35.309 35.767 53.905c0 29.815 16.879 57.059 43.576 70.334l3.631 1.806v66.074h141.59v-71.77l18.292-10.692c24.098-14.086 38.911-39.902 38.911-67.815v-84.486c0-15.793-12.803-28.596-28.596-28.596z" fill="#ffd0c7"/><path id="XMLID_159_" d="m364.71 272.585c-.102-.031-.051-.017 0-.001-5.128-28.677-30.178-50.45-60.33-50.45-.394 0-.781.027-1.173.035v-212.168h-94.408v212.168c-.396-.008-.787-.035-1.186-.035-30.148 0-55.196 21.768-60.328 50.441-18.996 5.5-32.89 23.012-32.89 43.781 0 25.176 20.41 45.586 45.587 45.586 9.77 0 18.813-3.083 26.234-8.316 10.641 18.165 30.351 30.374 52.925 30.374 19.214 0 36.357-8.845 47.598-22.679 7.169 7.728 17.406 12.571 28.779 12.571 11.393 0 21.646-4.858 28.817-12.611 22.3 3.84 44.501-9.407 51.28-31.616 7.348-24.081-6.825-49.729-30.905-57.08z" fill="#ccf5fc"/><g id="XMLID_158_"><path id="XMLID_183_" d="m473.403 228.641c-6.739 0-13.077 1.74-18.597 4.789v-56.028c0-18.527-15.073-33.601-33.601-33.601-4.969 0-9.69 1.085-13.938 3.029-2.323-16.276-16.355-28.83-33.264-28.83-16.912 0-30.939 12.562-33.258 28.843-4.25-1.947-8.97-3.042-13.943-3.042-4.762 0-9.368.993-13.596 2.865v-57.667c0-5.523-4.478-10-10-10s-10 4.477-10 10v178.701c0 5.523 4.478 10 10 10s10-4.477 10-10v-34.806c20.634 3.576 37.332 19.483 41.487 40.536.358 3.952 3.076 7.493 7.097 8.72 9.164 2.797 16.756 9.007 21.375 17.486 4.611 8.463 5.635 18.091 2.882 27.109-5.22 17.099-22.424 27.711-40.019 24.68-3.339-.577-6.739.578-9.039 3.065-5.606 6.062-13.233 9.401-21.475 9.401-8.226 0-15.842-3.328-21.446-9.371-1.97-2.123-4.736-3.278-7.659-3.194-2.895.095-5.606 1.44-7.434 3.688-9.803 12.066-24.324 18.986-39.836 18.986-18.135 0-35.107-9.744-44.295-25.428-1.415-2.415-3.776-4.126-6.512-4.719-2.734-.592-5.593-.012-7.88 1.601-6.02 4.245-13.099 6.488-20.472 6.488-19.622 0-35.586-15.964-35.586-35.586 0-15.746 10.557-29.8 25.672-34.176 3.654-1.058 6.392-4.098 7.062-7.844 3.849-21.505 20.735-37.819 41.67-41.442v34.806c0 5.523 4.478 10 10 10 5.523 0 10-4.477 10-10v-150.701c0-5.523-4.477-10-10-10-5.522 0-10 4.477-10 10v29.669c-4.229-1.873-8.838-2.867-13.602-2.867-4.973 0-9.693 1.094-13.943 3.042-2.319-16.281-16.346-28.843-33.258-28.843-16.908 0-30.94 12.554-33.264 28.83-4.248-1.944-8.97-3.029-13.938-3.029-18.527 0-33.6 15.073-33.6 33.601v56.028c-5.52-3.048-11.858-4.789-18.597-4.789-21.281 0-38.596 17.314-38.596 38.596v39.487c0 5.523 4.477 10 10 10s10-4.477 10-10v-39.487c0-10.254 8.343-18.596 18.597-18.596s18.597 8.342 18.597 18.596v55.151c0 5.523 4.477 10 10 10 23.863 0 43.277 19.414 43.277 43.278 0 5.523 4.477 10 10 10 5.522 0 10-4.477 10-10 0-4.498-.48-8.885-1.377-13.121 8.84 5.93 19.465 9.397 30.887 9.397 8.102 0 15.977-1.734 23.21-5.07 13.389 16.898 33.983 27.082 55.805 27.126-6.565 13.399-17.381 24.384-31.023 31.168l-3.632 1.806c-3.398 1.69-5.548 5.159-5.548 8.955v66.073c0 5.523 4.477 10 10 10 5.522 0 10-4.477 10-10v-59.907c16.084-8.487 28.972-21.565 37.203-37.392 8.216 15.823 21.082 28.886 37.211 37.392v59.907c0 5.523 4.478 10 10 10s10-4.477 10-10v-66.074c0-3.796-2.149-7.265-5.548-8.955l-3.632-1.805c-16.007-7.96-28.053-21.627-33.985-38.206 6.324-3.044 12.206-7.013 17.435-11.847 8.179 5.655 17.975 8.778 28.038 8.778 11.897 0 23.413-4.36 32.33-12.11 12.666.965 24.953-2.497 35.066-9.263-.9 4.243-1.383 8.639-1.383 13.147 0 5.523 4.478 10 10 10s10-4.477 10-10c0-23.863 19.414-43.278 43.277-43.278 5.522 0 10-4.477 10-10v-55.151c0-10.254 8.343-18.596 18.597-18.596s18.597 8.342 18.597 18.596v84.487c0 24.261-13.012 46.938-33.956 59.181l-18.293 10.692c-3.068 1.793-4.954 5.08-4.954 8.633v71.771c0 5.523 4.478 10 10 10s10-4.477 10-10v-66.031l13.34-7.797c27.056-15.816 43.864-45.109 43.864-76.448v-84.487c0-21.282-17.315-38.596-38.597-38.596zm-288.206-64.84c3.633 0 7.049 1.415 9.617 3.983 2.569 2.569 3.983 5.984 3.983 9.617v35.277c-9.785 1.207-19.001 4.401-27.201 9.197v-44.474c.001-7.499 6.102-13.6 13.601-13.6zm-108.004 149.384v-135.784c0-7.499 6.102-13.601 13.601-13.601s13.601 6.101 13.601 13.601v56.931c0 5.523 4.478 10 10 10s10-4.477 10-10v-82.732c0-7.499 6.102-13.601 13.602-13.601 7.499 0 13.601 6.101 13.601 13.601v87.677c-5.878 7.457-10.32 16.152-12.863 25.717-20.49 8.503-34.339 28.822-34.339 51.361 0 2.943.234 5.832.677 8.653-8.035-6.022-17.545-10.174-27.88-11.823zm236.014-100.505v-35.38c.026-3.595 1.433-6.971 3.978-9.516 2.568-2.569 5.984-3.983 9.617-3.983 7.499 0 13.601 6.101 13.601 13.601v44.478c-8.198-4.797-17.413-7.992-27.196-9.2zm93.698 112.346c1.866-11.893-.24-24.065-6.177-34.96-6.171-11.327-15.789-20.039-27.446-24.991-2.539-9.594-6.987-18.316-12.879-25.792v-87.683c0-7.499 6.102-13.601 13.601-13.601 7.5 0 13.602 6.101 13.602 13.601v82.732c0 5.523 4.478 10 10 10s10-4.477 10-10v-56.931c0-7.499 6.102-13.601 13.601-13.601s13.601 6.101 13.601 13.601v135.784c-10.346 1.65-19.863 5.809-27.903 11.841z"/><path id="XMLID_247_" d="m72.249 421.597-18.292-10.692c-9.082-5.309-16.933-12.76-22.703-21.549-3.032-4.616-9.229-5.902-13.849-2.87-4.616 3.031-5.901 9.231-2.87 13.848 7.456 11.354 17.598 20.98 29.329 27.838l13.339 7.797v66.031c0 5.523 4.478 10 10 10s10-4.477 10-10v-71.77c0-3.553-1.886-6.84-4.954-8.633z"/><path id="XMLID_248_" d="m303.207 48.999c5.522 0 10-4.477 10-10v-28.999c0-5.523-4.478-10-10-10s-10 4.477-10 10v28.999c0 5.523 4.478 10 10 10z"/><path id="XMLID_249_" d="m208.799 76.999c5.523 0 10-4.477 10-10v-56.999c0-5.523-4.477-10-10-10-5.522 0-10 4.477-10 10v56.999c0 5.523 4.477 10 10 10z"/><path id="XMLID_250_" d="m256 85.666c5.522 0 10-4.477 10-10v-65.666c0-5.523-4.478-10-10-10-5.523 0-10 4.477-10 10v65.665c0 5.524 4.477 10.001 10 10.001z"/><path id="XMLID_251_" d="m256 177.23c5.522 0 10-4.477 10-10v-43.712c0-5.523-4.478-10-10-10-5.523 0-10 4.477-10 10v43.712c0 5.522 4.477 10 10 10z"/><path id="XMLID_252_" d="m256 306.611c5.522 0 10-4.477 10-10v-74.477c0-5.523-4.478-10-10-10-5.523 0-10 4.477-10 10v74.477c0 5.523 4.477 10 10 10z"/><path id="XMLID_253_" d="m303.21 325c2.63 0 5.2-1.07 7.07-2.93 1.859-1.86 2.93-4.44 2.93-7.07s-1.07-5.21-2.93-7.07c-1.87-1.86-4.44-2.93-7.07-2.93s-5.21 1.07-7.07 2.93c-1.87 1.86-2.93 4.44-2.93 7.07s1.06 5.21 2.93 7.07c1.86 1.86 4.44 2.93 7.07 2.93z"/><path id="XMLID_254_" d="m20 351.72c0-2.63-1.07-5.21-2.931-7.07-1.859-1.86-4.439-2.93-7.069-2.93s-5.21 1.07-7.07 2.93c-1.86 1.87-2.93 4.44-2.93 7.07s1.069 5.21 2.93 7.07c1.86 1.87 4.44 2.93 7.07 2.93s5.21-1.06 7.069-2.93c1.861-1.86 2.931-4.43 2.931-7.07z"/></g></g></svg>